# xmcd
# Copyright (C) 1995-1998 Ti Kan
#
# Track frame offsets:
#       150
#       89095
#       154208
#       229096
#
# Disc length: 3608 seconds
#
# Revision: 0
# Processed by: cddbd v1.5.2PL0 Copyright (c) Steve Scherf et al.
# Submitted via: CD-Transfer v1.0
#
DISCID=2c0e1604
DTITLE=Michael Friedel - 
DYEAR=1900
DGENRE=
TTITLE0=Hitclub 23.05.10 - 01
TTITLE1=Hitclub 23.05.10 - 02
TTITLE2=Hitclub 23.05.10 - 03
TTITLE3=Hitclub 23.05.10 - 04
EXTD=
EXTT0=
EXTT1=
EXTT2=
EXTT3=
PLAYORDER=
